# xmcd
#
# Track frame offsets: 
#        150
#        16041
#        39182
#        58512
#        82391
#        107945
#        134006
#        158052
#        171334
#        190379
#        209655
#        230119
#
# Disc length: 3277 seconds
#
# Revision: 11
# Processed by: cddbd v1.5.2PL0 Copyright (c) Steve Scherf et al.
# Submitted via: ExactAudioCopy v1.0b6
#
DISCID=ad0ccb0c
DTITLE=Bon Jovi - 100,000,000 Bon Jovi Fans Can't Be Wrong... Disc 1 B
DTITLE=0003543-00
DYEAR=2004
DGENRE=Hard Rock
TTITLE0=Why Aren't You Dead? (Unreleased)
TTITLE1=The Radio Saved My Life Tonight (Unreleased)
TTITLE2=Taking It Back (Unreleased)
TTITLE3=Someday I'll Be Saturday Night (Original Demo)
TTITLE4=Miss Fourth of July (Unreleased)
TTITLE5=Open All Night (Unreleased)
TTITLE6=These Arms Are Open All Night (Unreleased)
TTITLE7=I Get a Rush (Unreleased)
TTITLE8=Someday Just Might Be Tonight (Unreleased)
TTITLE9=Thief of Hearts (Unreleased Studio Track)
TTITLE10=Last Man Standing (Unreleased Studio Track)
TTITLE11=I Just Want To Be Your Man (Unreleased)
EXTD=YEAR: 2004
EXTT0=
EXTT1=
EXTT2=
EXTT3=
EXTT4=
EXTT5=
EXTT6=
EXTT7=
EXTT8=
EXTT9=
EXTT10=
EXTT11=
PLAYORDER=
